<svg viewBox="0 0 788 182" width="788" height="182" xmlns="http://www.w3.org/2000/svg">
<style>

  .c {
    fill: var(--c);
    transition: fill 1500ms ease-in-out;
    shape-rendering: geometricPrecision;
  }
  svg.i .c {
    fill: var(--i);
  }
  .ml { font: 10px sans-serif; fill: #57606a; }
  .dl { font: 10px sans-serif; fill: #57606a; text-anchor: end; }
  .lg { font: 10px sans-serif; fill: #57606a; }

  @media (prefers-color-scheme: dark) {
    .c {
      fill: var(--c);
      transition: fill 1500ms ease-in-out;
    }
    svg.i .c {
      fill: var(--i);
    }
    .ml, .dl, .lg { fill: #8b949e; }
    svg { background: #0d1117; border-radius: 6px; }
  }

</style>
<text x="24" y="18" class="ml">May</text>
<text x="52" y="18" class="ml">Jun</text>
<text x="108" y="18" class="ml">Jul</text>
<text x="164" y="18" class="ml">Aug</text>
<text x="234" y="18" class="ml">Sep</text>
<text x="290" y="18" class="ml">Oct</text>
<text x="346" y="18" class="ml">Nov</text>
<text x="416" y="18" class="ml">Dec</text>
<text x="472" y="18" class="ml">Jan</text>
<text x="542" y="18" class="ml">Feb</text>
<text x="598" y="18" class="ml">Mar</text>
<text x="654" y="18" class="ml">Apr</text>
<text x="710" y="18" class="ml">May</text>
<text x="18" y="48" class="dl">Mon</text>
<text x="18" y="76" class="dl">Wed</text>
<text x="18" y="104" class="dl">Fri</text>
<rect class="c" x="24" y="24" width="12" height="12" rx="2" style="--c:#ebedf0;--i:#6b413a" />
<rect class="c" x="24" y="38" width="12" height="12" rx="2" style="--c:#ebedf0;--i:#905147" />
<rect class="c" x="24" y="52" width="12" height="12" rx="2" style="--c:#ebedf0;--i:#9d574c" />
<rect class="c" x="24" y="66" width="12" height="12" rx="2" style="--c:#ebedf0;--i:#a05a50" />
<rect class="c" x="24" y="80" width="12" height="12" rx="2" style="--c:#ebedf0;--i:#9d564b" />
<rect class="c" x="24" y="94" width="12" height="12" rx="2" style="--c:#ebedf0;--i:#904a40" />
<rect class="c" x="24" y="108" width="12" height="12" rx="2" style="--c:#ebedf0;--i:#6a362f" />
<rect class="c" x="38" y="24" width="12" height="12" rx="2" style="--c:#ebedf0;--i:#915a4c" />
<rect class="c" x="38" y="38" width="12" height="12" rx="2" style="--c:#ebedf0;--i:#c3735f" />
<rect class="c" x="38" y="52" width="12" height="12" rx="2" style="--c:#ebedf0;--i:#d57d68" />
<rect class="c" x="38" y="66" width="12" height="12" rx="2" style="--c:#ebedf0;--i:#d9816c" />
<rect class="c" x="38" y="80" width="12" height="12" rx="2" style="--c:#ebedf0;--i:#d57c66" />
<rect class="c" x="38" y="94" width="12" height="12" rx="2" style="--c:#ebedf0;--i:#c36e5b" />
<rect class="c" x="38" y="108" width="12" height="12" rx="2" style="--c:#ebedf0;--i:#905347" />
<rect class="c" x="52" y="24" width="12" height="12" rx="2" style="--c:#ebedf0;--i:#9e674f" />
<rect class="c" x="52" y="38" width="12" height="12" rx="2" style="--c:#ebedf0;--i:#d58666" />
<rect class="c" x="52" y="52" width="12" height="12" rx="2" style="--c:#ebedf0;--i:#e99472" />
<rect class="c" x="52" y="66" width="12" height="12" rx="2" style="--c:#ebedf0;--i:#ed9876" />
<rect class="c" x="52" y="80" width="12" height="12" rx="2" style="--c:#ebedf0;--i:#e99371" />
<rect class="c" x="52" y="94" width="12" height="12" rx="2" style="--c:#ebedf0;--i:#d6896c" />
<rect class="c" x="52" y="108" width="12" height="12" rx="2" style="--c:#ebedf0;--i:#9f6b59" />
<rect class="c" x="66" y="24" width="12" height="12" rx="2" style="--c:#ebedf0;--i:#a06e4c" />
<rect class="c" x="66" y="38" width="12" height="12" rx="2" style="--c:#ebedf0;--i:#d89366" />
<rect class="c" x="66" y="52" width="12" height="12" rx="2" style="--c:#ebedf0;--i:#eca474" />
<rect class="c" x="66" y="66" width="12" height="12" rx="2" style="--c:#ebedf0;--i:#f0a777" />
<rect class="c" x="66" y="80" width="12" height="12" rx="2" style="--c:#ebedf0;--i:#eda475" />
<rect class="c" x="66" y="94" width="12" height="12" rx="2" style="--c:#ebedf0;--i:#da9c76" />
<rect class="c" x="66" y="108" width="12" height="12" rx="2" style="--c:#ebedf0;--i:#a27b64" />
<rect class="c" x="80" y="24" width="12" height="12" rx="2" style="--c:#ebedf0;--i:#9f7548" />
<rect class="c" x="80" y="38" width="12" height="12" rx="2" style="--c:#ebedf0;--i:#d8a065" />
<rect class="c" x="80" y="52" width="12" height="12" rx="2" style="--c:#ebedf0;--i:#ecb275" />
<rect class="c" x="80" y="66" width="12" height="12" rx="2" style="--c:#ebedf0;--i:#f0b577" />
<rect class="c" x="80" y="80" width="12" height="12" rx="2" style="--c:#ebedf0;--i:#edb377" />
<rect class="c" x="80" y="94" width="12" height="12" rx="2" style="--c:#ebedf0;--i:#daab7c" />
<rect class="c" x="80" y="108" width="12" height="12" rx="2" style="--c:#ebedf0;--i:#a3876a" />
<rect class="c" x="94" y="24" width="12" height="12" rx="2" style="--c:#ebedf0;--i:#9f7d45" />
<rect class="c" x="94" y="38" width="12" height="12" rx="2" style="--c:#ebedf0;--i:#d8ad66" />
<rect class="c" x="94" y="52" width="12" height="12" rx="2" style="--c:#ebedf0;--i:#ecbf75" />
<rect class="c" x="94" y="66" width="12" height="12" rx="2" style="--c:#ebedf0;--i:#f0c276" />
<rect class="c" x="94" y="80" width="12" height="12" rx="2" style="--c:#ebedf0;--i:#edc178" />
<rect class="c" x="94" y="94" width="12" height="12" rx="2" style="--c:#ebedf0;--i:#dbb87d" />
<rect class="c" x="94" y="108" width="12" height="12" rx="2" style="--c:#ebedf0;--i:#a38e69" />
<rect class="c" x="108" y="24" width="12" height="12" rx="2" style="--c:#ebedf0;--i:#9f8745" />
<rect class="c" x="108" y="38" width="12" height="12" rx="2" style="--c:#ebedf0;--i:#d8ba67" />
<rect class="c" x="108" y="52" width="12" height="12" rx="2" style="--c:#ebedf0;--i:#eccd75" />
<rect class="c" x="108" y="66" width="12" height="12" rx="2" style="--c:#ebedf0;--i:#f0cf75" />
<rect class="c" x="108" y="80" width="12" height="12" rx="2" style="--c:#ebedf0;--i:#edce78" />
<rect class="c" x="108" y="94" width="12" height="12" rx="2" style="--c:#ebedf0;--i:#dac27a" />
<rect class="c" x="108" y="108" width="12" height="12" rx="2" style="--c:#ebedf0;--i:#a29261" />
<rect class="c" x="122" y="24" width="12" height="12" rx="2" style="--c:#ebedf0;--i:#9e9047" />
<rect class="c" x="122" y="38" width="12" height="12" rx="2" style="--c:#ebedf0;--i:#d7c669" />
<rect class="c" x="122" y="52" width="12" height="12" rx="2" style="--c:#ebedf0;--i:#ebd975" />
<rect class="c" x="122" y="66" width="12" height="12" rx="2" style="--c:#ebedf0;--i:#eedc74" />
<rect class="c" x="122" y="80" width="12" height="12" rx="2" style="--c:#ebedf0;--i:#ebda77" />
<rect class="c" x="122" y="94" width="12" height="12" rx="2" style="--c:#ebedf0;--i:#d8ca73" />
<rect class="c" x="122" y="108" width="12" height="12" rx="2" style="--c:#ebedf0;--i:#9f9655" />
<rect class="c" x="136" y="24" width="12" height="12" rx="2" style="--c:#ebedf0;--i:#9c984b" />
<rect class="c" x="136" y="38" width="12" height="12" rx="2" style="--c:#ebedf0;--i:#d4d06c" />
<rect class="c" x="136" y="52" width="12" height="12" rx="2" style="--c:#ebedf0;--i:#e7e374" />
<rect class="c" x="136" y="66" width="12" height="12" rx="2" style="--c:#ebedf0;--i:#ebe673" />
<rect class="c" x="136" y="80" width="12" height="12" rx="2" style="--c:#ebedf0;--i:#e7e375" />
<rect class="c" x="136" y="94" width="12" height="12" rx="2" style="--c:#ebedf0;--i:#d3d16a" />
<rect class="c" x="136" y="108" width="12" height="12" rx="2" style="--c:#ebedf0;--i:#9b9a47" />
<rect class="c" x="150" y="24" width="12" height="12" rx="2" style="--c:#ebedf0;--i:#989e4f" />
<rect class="c" x="150" y="38" width="12" height="12" rx="2" style="--c:#ebedf0;--i:#ced66e" />
<rect class="c" x="150" y="52" width="12" height="12" rx="2" style="--c:#ebedf0;--i:#e0e973" />
<rect class="c" x="150" y="66" width="12" height="12" rx="2" style="--c:#ebedf0;--i:#e3ec73" />
<rect class="c" x="150" y="80" width="12" height="12" rx="2" style="--c:#ebedf0;--i:#dfe973" />
<rect class="c" x="150" y="94" width="12" height="12" rx="2" style="--c:#ebedf0;--i:#cad461" />
<rect class="c" x="150" y="108" width="12" height="12" rx="2" style="--c:#ebedf0;--i:#929c3b" />
<rect class="c" x="164" y="24" width="12" height="12" rx="2" style="--c:#ebedf0;--i:#92a054" />
<rect class="c" x="164" y="38" width="12" height="12" rx="2" style="--c:#ebedf0;--i:#c4d86f" />
<rect class="c" x="164" y="52" width="12" height="12" rx="2" style="--c:#ebedf0;--i:#d4ec73" />
<rect class="c" x="164" y="66" width="12" height="12" rx="2" style="--c:#ebedf0;--i:#d8ef74" />
<rect class="c" x="164" y="80" width="12" height="12" rx="2" style="--c:#ebedf0;--i:#d4eb71" />
<rect class="c" x="164" y="94" width="12" height="12" rx="2" style="--c:#ebedf0;--i:#bdd65a" />
<rect class="c" x="164" y="108" width="12" height="12" rx="2" style="--c:#ebedf0;--i:#889c34" />
<rect class="c" x="178" y="24" width="12" height="12" rx="2" style="--c:#ebedf0;--i:#8ba157" />
<rect class="c" x="178" y="38" width="12" height="12" rx="2" style="--c:#ebedf0;--i:#b9d96f" />
<rect class="c" x="178" y="52" width="12" height="12" rx="2" style="--c:#ebedf0;--i:#c7ec72" />
<rect class="c" x="178" y="66" width="12" height="12" rx="2" style="--c:#ebedf0;--i:#cbf075" />
<rect class="c" x="178" y="80" width="12" height="12" rx="2" style="--c:#ebedf0;--i:#c6ec70" />
<rect class="c" x="178" y="94" width="12" height="12" rx="2" style="--c:#ebedf0;--i:#afd657" />
<rect class="c" x="178" y="108" width="12" height="12" rx="2" style="--c:#ebedf0;--i:#7d9d33" />
<rect class="c" x="192" y="24" width="12" height="12" rx="2" style="--c:#ebedf0;--i:#83a158" />
<rect class="c" x="192" y="38" width="12" height="12" rx="2" style="--c:#ebedf0;--i:#acd96d" />
<rect class="c" x="192" y="52" width="12" height="12" rx="2" style="--c:#ebedf0;--i:#b9ec72" />
<rect class="c" x="192" y="66" width="12" height="12" rx="2" style="--c:#ebedf0;--i:#bdf076" />
<rect class="c" x="192" y="80" width="12" height="12" rx="2" style="--c:#ebedf0;--i:#b8ec70" />
<rect class="c" x="192" y="94" width="12" height="12" rx="2" style="--c:#ebedf0;--i:#a3d658" />
<rect class="c" x="192" y="108" width="12" height="12" rx="2" style="--c:#ebedf0;--i:#759d39" />
<rect class="c" x="206" y="24" width="12" height="12" rx="2" style="--c:#ebedf0;--i:#79a157" />
<rect class="c" x="206" y="38" width="12" height="12" rx="2" style="--c:#ebedf0;--i:#9ed96b" />
<rect class="c" x="206" y="52" width="12" height="12" rx="2" style="--c:#ebedf0;--i:#acec72" />
<rect class="c" x="206" y="66" width="12" height="12" rx="2" style="--c:#ebedf0;--i:#b0f077" />
<rect class="c" x="206" y="80" width="12" height="12" rx="2" style="--c:#ebedf0;--i:#abec70" />
<rect class="c" x="206" y="94" width="12" height="12" rx="2" style="--c:#ebedf0;--i:#99d75f" />
<rect class="c" x="206" y="108" width="12" height="12" rx="2" style="--c:#ebedf0;--i:#719f44" />
<rect class="c" x="220" y="24" width="12" height="12" rx="2" style="--c:#ebedf0;--i:#6ea053" />
<rect class="c" x="220" y="38" width="12" height="12" rx="2" style="--c:#ebedf0;--i:#90d869" />
<rect class="c" x="220" y="52" width="12" height="12" rx="2" style="--c:#ebedf0;--i:#9fec73" />
<rect class="c" x="220" y="66" width="12" height="12" rx="2" style="--c:#ebedf0;--i:#a3f078" />
<rect class="c" x="220" y="80" width="12" height="12" rx="2" style="--c:#ebedf0;--i:#9eec72" />
<rect class="c" x="220" y="94" width="12" height="12" rx="2" style="--c:#ebedf0;--i:#91d868" />
<rect class="c" x="220" y="108" width="12" height="12" rx="2" style="--c:#ebedf0;--i:#70a052" />
<rect class="c" x="234" y="24" width="12" height="12" rx="2" style="--c:#ebedf0;--i:#62a04f" />
<rect class="c" x="234" y="38" width="12" height="12" rx="2" style="--c:#ebedf0;--i:#83d867" />
<rect class="c" x="234" y="52" width="12" height="12" rx="2" style="--c:#ebedf0;--i:#92ec74" />
<rect class="c" x="234" y="66" width="12" height="12" rx="2" style="--c:#ebedf0;--i:#96f078" />
<rect class="c" x="234" y="80" width="12" height="12" rx="2" style="--c:#ebedf0;--i:#92ec74" />
<rect class="c" x="234" y="94" width="12" height="12" rx="2" style="--c:#ebedf0;--i:#8cd971" />
<rect class="c" x="234" y="108" width="12" height="12" rx="2" style="--c:#ebedf0;--i:#71a25f" />
<rect class="c" x="248" y="24" width="12" height="12" rx="2" style="--c:#ebedf0;--i:#569f4b" />
<rect class="c" x="248" y="38" width="12" height="12" rx="2" style="--c:#ebedf0;--i:#76d867" />
<rect class="c" x="248" y="52" width="12" height="12" rx="2" style="--c:#ebedf0;--i:#87ec77" />
<rect class="c" x="248" y="66" width="12" height="12" rx="2" style="--c:#ebedf0;--i:#89f079" />
<rect class="c" x="248" y="80" width="12" height="12" rx="2" style="--c:#ebedf0;--i:#88ec78" />
<rect class="c" x="248" y="94" width="12" height="12" rx="2" style="--c:#ebedf0;--i:#88da7a" />
<rect class="c" x="248" y="108" width="12" height="12" rx="2" style="--c:#ebedf0;--i:#71a368" />
<rect class="c" x="262" y="24" width="12" height="12" rx="2" style="--c:#ebedf0;--i:#4c9f4b" />
<rect class="c" x="262" y="38" width="12" height="12" rx="2" style="--c:#ebedf0;--i:#6dd86b" />
<rect class="c" x="262" y="52" width="12" height="12" rx="2" style="--c:#ebedf0;--i:#7eec7b" />
<rect class="c" x="262" y="66" width="12" height="12" rx="2" style="--c:#ebedf0;--i:#7ff07d" />
<rect class="c" x="262" y="80" width="12" height="12" rx="2" style="--c:#ebedf0;--i:#80ed7d" />
<rect class="c" x="262" y="94" width="12" height="12" rx="2" style="--c:#ebedf0;--i:#84db82" />
<rect class="c" x="262" y="108" width="12" height="12" rx="2" style="--c:#ebedf0;--i:#6ea36e" />
<rect class="c" x="276" y="24" width="12" height="12" rx="2" style="--c:#40c463;--i:#479f4f" />
<rect class="c" x="276" y="38" width="12" height="12" rx="2" style="--c:#ebedf0;--i:#69d873" />
<rect class="c" x="276" y="52" width="12" height="12" rx="2" style="--c:#ebedf0;--i:#78ec83" />
<rect class="c" x="276" y="66" width="12" height="12" rx="2" style="--c:#ebedf0;--i:#78f084" />
<rect class="c" x="276" y="80" width="12" height="12" rx="2" style="--c:#ebedf0;--i:#7bed86" />
<rect class="c" x="276" y="94" width="12" height="12" rx="2" style="--c:#ebedf0;--i:#7fdb88" />
<rect class="c" x="276" y="108" width="12" height="12" rx="2" style="--c:#ebedf0;--i:#68a36e" />
<rect class="c" x="290" y="24" width="12" height="12" rx="2" style="--c:#ebedf0;--i:#469f58" />
<rect class="c" x="290" y="38" width="12" height="12" rx="2" style="--c:#ebedf0;--i:#69d87f" />
<rect class="c" x="290" y="52" width="12" height="12" rx="2" style="--c:#ebedf0;--i:#76ec8f" />
<rect class="c" x="290" y="66" width="12" height="12" rx="2" style="--c:#ebedf0;--i:#75f08e" />
<rect class="c" x="290" y="80" width="12" height="12" rx="2" style="--c:#ebedf0;--i:#78ed91" />
<rect class="c" x="290" y="94" width="12" height="12" rx="2" style="--c:#ebedf0;--i:#78da8e" />
<rect class="c" x="290" y="108" width="12" height="12" rx="2" style="--c:#ebedf0;--i:#5da26d" />
<rect class="c" x="304" y="24" width="12" height="12" rx="2" style="--c:#ebedf0;--i:#489f63" />
<rect class="c" x="304" y="38" width="12" height="12" rx="2" style="--c:#ebedf0;--i:#6ad88d" />
<rect class="c" x="304" y="52" width="12" height="12" rx="2" style="--c:#ebedf0;--i:#75ec9b" />
<rect class="c" x="304" y="66" width="12" height="12" rx="2" style="--c:#ebedf0;--i:#74ef9b" />
<rect class="c" x="304" y="80" width="12" height="12" rx="2" style="--c:#ebedf0;--i:#76ed9c" />
<rect class="c" x="304" y="94" width="12" height="12" rx="2" style="--c:#ebedf0;--i:#6fd993" />
<rect class="c" x="304" y="108" width="12" height="12" rx="2" style="--c:#ebedf0;--i:#4fa06b" />
<rect class="c" x="318" y="24" width="12" height="12" rx="2" style="--c:#ebedf0;--i:#4da070" />
<rect class="c" x="318" y="38" width="12" height="12" rx="2" style="--c:#ebedf0;--i:#6dd99b" />
<rect class="c" x="318" y="52" width="12" height="12" rx="2" style="--c:#ebedf0;--i:#74eca8" />
<rect class="c" x="318" y="66" width="12" height="12" rx="2" style="--c:#ebedf0;--i:#73efa9" />
<rect class="c" x="318" y="80" width="12" height="12" rx="2" style="--c:#ebedf0;--i:#74eca9" />
<rect class="c" x="318" y="94" width="12" height="12" rx="2" style="--c:#ebedf0;--i:#66d899" />
<rect class="c" x="318" y="108" width="12" height="12" rx="2" style="--c:#ebedf0;--i:#429f6c" />
<rect class="c" x="332" y="24" width="12" height="12" rx="2" style="--c:#ebedf0;--i:#52a07c" />
<rect class="c" x="332" y="38" width="12" height="12" rx="2" style="--c:#ebedf0;--i:#6ed9a8" />
<rect class="c" x="332" y="52" width="12" height="12" rx="2" style="--c:#ebedf0;--i:#73ecb5" />
<rect class="c" x="332" y="66" width="12" height="12" rx="2" style="--c:#ebedf0;--i:#74f0b7" />
<rect class="c" x="332" y="80" width="12" height="12" rx="2" style="--c:#ebedf0;--i:#72ecb5" />
<rect class="c" x="332" y="94" width="12" height="12" rx="2" style="--c:#ebedf0;--i:#5dd7a1" />
<rect class="c" x="332" y="108" width="12" height="12" rx="2" style="--c:#ebedf0;--i:#379d71" />
<rect class="c" x="346" y="24" width="12" height="12" rx="2" style="--c:#ebedf0;--i:#56a187" />
<rect class="c" x="346" y="38" width="12" height="12" rx="2" style="--c:#ebedf0;--i:#6fd9b5" />
<rect class="c" x="346" y="52" width="12" height="12" rx="2" style="--c:#ebedf0;--i:#72ecc3" />
<rect class="c" x="346" y="66" width="12" height="12" rx="2" style="--c:#ebedf0;--i:#74f0c6" />
<rect class="c" x="346" y="80" width="12" height="12" rx="2" style="--c:#ebedf0;--i:#70ecc2" />
<rect class="c" x="346" y="94" width="12" height="12" rx="2" style="--c:#ebedf0;--i:#58d6ac" />
<rect class="c" x="346" y="108" width="12" height="12" rx="2" style="--c:#ebedf0;--i:#329d79" />
<rect class="c" x="360" y="24" width="12" height="12" rx="2" style="--c:#ebedf0;--i:#58a190" />
<rect class="c" x="360" y="38" width="12" height="12" rx="2" style="--c:#ebedf0;--i:#6ed8c0" />
<rect class="c" x="360" y="52" width="12" height="12" rx="2" style="--c:#40c463;--i:#72ecd0" />
<rect class="c" x="360" y="66" width="12" height="12" rx="2" style="--c:#ebedf0;--i:#75efd3" />
<rect class="c" x="360" y="80" width="12" height="12" rx="2" style="--c:#ebedf0;--i:#70ebcf" />
<rect class="c" x="360" y="94" width="12" height="12" rx="2" style="--c:#ebedf0;--i:#57d6b9" />
<rect class="c" x="360" y="108" width="12" height="12" rx="2" style="--c:#ebedf0;--i:#359d84" />
<rect class="c" x="374" y="24" width="12" height="12" rx="2" style="--c:#ebedf0;--i:#589f97" />
<rect class="c" x="374" y="38" width="12" height="12" rx="2" style="--c:#ebedf0;--i:#6dd6cb" />
<rect class="c" x="374" y="52" width="12" height="12" rx="2" style="--c:#ebedf0;--i:#72eadc" />
<rect class="c" x="374" y="66" width="12" height="12" rx="2" style="--c:#ebedf0;--i:#76eee0" />
<rect class="c" x="374" y="80" width="12" height="12" rx="2" style="--c:#ebedf0;--i:#70eadb" />
<rect class="c" x="374" y="94" width="12" height="12" rx="2" style="--c:#ebedf0;--i:#5bd5c6" />
<rect class="c" x="374" y="108" width="12" height="12" rx="2" style="--c:#ebedf0;--i:#3d9d90" />
<rect class="c" x="388" y="24" width="12" height="12" rx="2" style="--c:#ebedf0;--i:#559c9c" />
<rect class="c" x="388" y="38" width="12" height="12" rx="2" style="--c:#ebedf0;--i:#6ad2d2" />
<rect class="c" x="388" y="52" width="12" height="12" rx="2" style="--c:#ebedf0;--i:#73e5e5" />
<rect class="c" x="388" y="66" width="12" height="12" rx="2" style="--c:#ebedf0;--i:#77e9e9" />
<rect class="c" x="388" y="80" width="12" height="12" rx="2" style="--c:#ebedf0;--i:#71e5e5" />
<rect class="c" x="388" y="94" width="12" height="12" rx="2" style="--c:#ebedf0;--i:#62d1d0" />
<rect class="c" x="388" y="108" width="12" height="12" rx="2" style="--c:#ebedf0;--i:#4a9b99" />
<rect class="c" x="402" y="24" width="12" height="12" rx="2" style="--c:#ebedf0;--i:#51959f" />
<rect class="c" x="402" y="38" width="12" height="12" rx="2" style="--c:#30a14e;--i:#68c9d6" />
<rect class="c" x="402" y="52" width="12" height="12" rx="2" style="--c:#ebedf0;--i:#73ddea" />
<rect class="c" x="402" y="66" width="12" height="12" rx="2" style="--c:#ebedf0;--i:#78e0ee" />
<rect class="c" x="402" y="80" width="12" height="12" rx="2" style="--c:#ebedf0;--i:#73dcea" />
<rect class="c" x="402" y="94" width="12" height="12" rx="2" style="--c:#ebedf0;--i:#6ccbd6" />
<rect class="c" x="402" y="108" width="12" height="12" rx="2" style="--c:#216e39;--i:#57999f" />
<rect class="c" x="416" y="24" width="12" height="12" rx="2" style="--c:#ebedf0;--i:#4c8c9f" />
<rect class="c" x="416" y="38" width="12" height="12" rx="2" style="--c:#9be9a8;--i:#66bed7" />
<rect class="c" x="416" y="52" width="12" height="12" rx="2" style="--c:#ebedf0;--i:#74d1ec" />
<rect class="c" x="416" y="66" width="12" height="12" rx="2" style="--c:#9be9a8;--i:#77d4f0" />
<rect class="c" x="416" y="80" width="12" height="12" rx="2" style="--c:#ebedf0;--i:#75d1ec" />
<rect class="c" x="416" y="94" width="12" height="12" rx="2" style="--c:#ebedf0;--i:#75c4d9" />
<rect class="c" x="416" y="108" width="12" height="12" rx="2" style="--c:#ebedf0;--i:#6395a2" />
<rect class="c" x="430" y="24" width="12" height="12" rx="2" style="--c:#ebedf0;--i:#48819f" />
<rect class="c" x="430" y="38" width="12" height="12" rx="2" style="--c:#ebedf0;--i:#65b1d8" />
<rect class="c" x="430" y="52" width="12" height="12" rx="2" style="--c:#ebedf0;--i:#75c4ec" />
<rect class="c" x="430" y="66" width="12" height="12" rx="2" style="--c:#ebedf0;--i:#77c7f0" />
<rect class="c" x="430" y="80" width="12" height="12" rx="2" style="--c:#ebedf0;--i:#76c5ed" />
<rect class="c" x="430" y="94" width="12" height="12" rx="2" style="--c:#ebedf0;--i:#7bbbda" />
<rect class="c" x="430" y="108" width="12" height="12" rx="2" style="--c:#ebedf0;--i:#6990a3" />
<rect class="c" x="444" y="24" width="12" height="12" rx="2" style="--c:#ebedf0;--i:#45769f" />
<rect class="c" x="444" y="38" width="12" height="12" rx="2" style="--c:#ebedf0;--i:#66a4d8" />
<rect class="c" x="444" y="52" width="12" height="12" rx="2" style="--c:#ebedf0;--i:#75b7ed" />
<rect class="c" x="444" y="66" width="12" height="12" rx="2" style="--c:#ebedf0;--i:#76b8f0" />
<rect class="c" x="444" y="80" width="12" height="12" rx="2" style="--c:#ebedf0;--i:#77b8ed" />
<rect class="c" x="444" y="94" width="12" height="12" rx="2" style="--c:#ebedf0;--i:#7db0db" />
<rect class="c" x="444" y="108" width="12" height="12" rx="2" style="--c:#ebedf0;--i:#6988a3" />
<rect class="c" x="458" y="24" width="12" height="12" rx="2" style="--c:#ebedf0;--i:#456c9f" />
<rect class="c" x="458" y="38" width="12" height="12" rx="2" style="--c:#ebedf0;--i:#6798d8" />
<rect class="c" x="458" y="52" width="12" height="12" rx="2" style="--c:#ebedf0;--i:#75a9ed" />
<rect class="c" x="458" y="66" width="12" height="12" rx="2" style="--c:#ebedf0;--i:#75aaf0" />
<rect class="c" x="458" y="80" width="12" height="12" rx="2" style="--c:#ebedf0;--i:#78abed" />
<rect class="c" x="458" y="94" width="12" height="12" rx="2" style="--c:#ebedf0;--i:#7ba4da" />
<rect class="c" x="458" y="108" width="12" height="12" rx="2" style="--c:#ebedf0;--i:#627da2" />
<rect class="c" x="472" y="24" width="12" height="12" rx="2" style="--c:#ebedf0;--i:#46639f" />
<rect class="c" x="472" y="38" width="12" height="12" rx="2" style="--c:#ebedf0;--i:#698dd8" />
<rect class="c" x="472" y="52" width="12" height="12" rx="2" style="--c:#ebedf0;--i:#759bed" />
<rect class="c" x="472" y="66" width="12" height="12" rx="2" style="--c:#ebedf0;--i:#749bf0" />
<rect class="c" x="472" y="80" width="12" height="12" rx="2" style="--c:#ebedf0;--i:#779ded" />
<rect class="c" x="472" y="94" width="12" height="12" rx="2" style="--c:#ebedf0;--i:#7493d9" />
<rect class="c" x="472" y="108" width="12" height="12" rx="2" style="--c:#ebedf0;--i:#576ca1" />
<rect class="c" x="486" y="24" width="12" height="12" rx="2" style="--c:#ebedf0;--i:#4a5d9f" />
<rect class="c" x="486" y="38" width="12" height="12" rx="2" style="--c:#ebedf0;--i:#6c83d9" />
<rect class="c" x="486" y="52" width="12" height="12" rx="2" style="--c:#ebedf0;--i:#758eec" />
<rect class="c" x="486" y="66" width="12" height="12" rx="2" style="--c:#ebedf0;--i:#748ef0" />
<rect class="c" x="486" y="80" width="12" height="12" rx="2" style="--c:#ebedf0;--i:#768eec" />
<rect class="c" x="486" y="94" width="12" height="12" rx="2" style="--c:#ebedf0;--i:#6b81d8" />
<rect class="c" x="486" y="108" width="12" height="12" rx="2" style="--c:#ebedf0;--i:#4a599f" />
<rect class="c" x="500" y="24" width="12" height="12" rx="2" style="--c:#ebedf0;--i:#5059a0" />
<rect class="c" x="500" y="38" width="12" height="12" rx="2" style="--c:#ebedf0;--i:#707ad9" />
<rect class="c" x="500" y="52" width="12" height="12" rx="2" style="--c:#ebedf0;--i:#7682ec" />
<rect class="c" x="500" y="66" width="12" height="12" rx="2" style="--c:#ebedf0;--i:#7682f0" />
<rect class="c" x="500" y="80" width="12" height="12" rx="2" style="--c:#ebedf0;--i:#7681ec" />
<rect class="c" x="500" y="94" width="12" height="12" rx="2" style="--c:#ebedf0;--i:#646ed7" />
<rect class="c" x="500" y="108" width="12" height="12" rx="2" style="--c:#ebedf0;--i:#3f479e" />
<rect class="c" x="514" y="24" width="12" height="12" rx="2" style="--c:#ebedf0;--i:#5858a0" />
<rect class="c" x="514" y="38" width="12" height="12" rx="2" style="--c:#ebedf0;--i:#7674d9" />
<rect class="c" x="514" y="52" width="12" height="12" rx="2" style="--c:#ebedf0;--i:#7b79ec" />
<rect class="c" x="514" y="66" width="12" height="12" rx="2" style="--c:#ebedf0;--i:#7c7af0" />
<rect class="c" x="514" y="80" width="12" height="12" rx="2" style="--c:#ebedf0;--i:#7a77ec" />
<rect class="c" x="514" y="94" width="12" height="12" rx="2" style="--c:#ebedf0;--i:#6360d7" />
<rect class="c" x="514" y="108" width="12" height="12" rx="2" style="--c:#ebedf0;--i:#3c399d" />
<rect class="c" x="528" y="24" width="12" height="12" rx="2" style="--c:#ebedf0;--i:#6158a1" />
<rect class="c" x="528" y="38" width="12" height="12" rx="2" style="--c:#ebedf0;--i:#7e70d9" />
<rect class="c" x="528" y="52" width="12" height="12" rx="2" style="--c:#ebedf0;--i:#8474ec" />
<rect class="c" x="528" y="66" width="12" height="12" rx="2" style="--c:#ebedf0;--i:#8777f0" />
<rect class="c" x="528" y="80" width="12" height="12" rx="2" style="--c:#ebedf0;--i:#8272ec" />
<rect class="c" x="528" y="94" width="12" height="12" rx="2" style="--c:#9be9a8;--i:#6958d6" />
<rect class="c" x="528" y="108" width="12" height="12" rx="2" style="--c:#ebedf0;--i:#42349d" />
<rect class="c" x="542" y="24" width="12" height="12" rx="2" style="--c:#ebedf0;--i:#6a58a1" />
<rect class="c" x="542" y="38" width="12" height="12" rx="2" style="--c:#ebedf0;--i:#886ed9" />
<rect class="c" x="542" y="52" width="12" height="12" rx="2" style="--c:#ebedf0;--i:#9072ec" />
<rect class="c" x="542" y="66" width="12" height="12" rx="2" style="--c:#ebedf0;--i:#9476f0" />
<rect class="c" x="542" y="80" width="12" height="12" rx="2" style="--c:#ebedf0;--i:#8e70ec" />
<rect class="c" x="542" y="94" width="12" height="12" rx="2" style="--c:#ebedf0;--i:#7758d6" />
<rect class="c" x="542" y="108" width="12" height="12" rx="2" style="--c:#ebedf0;--i:#4f389d" />
<rect class="c" x="556" y="24" width="12" height="12" rx="2" style="--c:#ebedf0;--i:#7257a1" />
<rect class="c" x="556" y="38" width="12" height="12" rx="2" style="--c:#ebedf0;--i:#936bd9" />
<rect class="c" x="556" y="52" width="12" height="12" rx="2" style="--c:#ebedf0;--i:#9e72ec" />
<rect class="c" x="556" y="66" width="12" height="12" rx="2" style="--c:#ebedf0;--i:#a277f0" />
<rect class="c" x="556" y="80" width="12" height="12" rx="2" style="--c:#ebedf0;--i:#9c70ec" />
<rect class="c" x="556" y="94" width="12" height="12" rx="2" style="--c:#ebedf0;--i:#885dd7" />
<rect class="c" x="556" y="108" width="12" height="12" rx="2" style="--c:#ebedf0;--i:#61429f" />
<rect class="c" x="570" y="24" width="12" height="12" rx="2" style="--c:#ebedf0;--i:#7954a1" />
<rect class="c" x="570" y="38" width="12" height="12" rx="2" style="--c:#ebedf0;--i:#9e69d8" />
<rect class="c" x="570" y="52" width="12" height="12" rx="2" style="--c:#ebedf0;--i:#ac73ec" />
<rect class="c" x="570" y="66" width="12" height="12" rx="2" style="--c:#ebedf0;--i:#b077f0" />
<rect class="c" x="570" y="80" width="12" height="12" rx="2" style="--c:#ebedf0;--i:#ab71ec" />
<rect class="c" x="570" y="94" width="12" height="12" rx="2" style="--c:#ebedf0;--i:#9a66d8" />
<rect class="c" x="570" y="108" width="12" height="12" rx="2" style="--c:#ebedf0;--i:#7350a0" />
<rect class="c" x="584" y="24" width="12" height="12" rx="2" style="--c:#ebedf0;--i:#7f4fa0" />
<rect class="c" x="584" y="38" width="12" height="12" rx="2" style="--c:#ebedf0;--i:#a967d8" />
<rect class="c" x="584" y="52" width="12" height="12" rx="2" style="--c:#ebedf0;--i:#ba74ec" />
<rect class="c" x="584" y="66" width="12" height="12" rx="2" style="--c:#ebedf0;--i:#be77f0" />
<rect class="c" x="584" y="80" width="12" height="12" rx="2" style="--c:#ebedf0;--i:#ba73ec" />
<rect class="c" x="584" y="94" width="12" height="12" rx="2" style="--c:#ebedf0;--i:#ac70d9" />
<rect class="c" x="584" y="108" width="12" height="12" rx="2" style="--c:#ebedf0;--i:#835da2" />
<rect class="c" x="598" y="24" width="12" height="12" rx="2" style="--c:#ebedf0;--i:#864aa0" />
<rect class="c" x="598" y="38" width="12" height="12" rx="2" style="--c:#ebedf0;--i:#b665d8" />
<rect class="c" x="598" y="52" width="12" height="12" rx="2" style="--c:#ebedf0;--i:#c874ec" />
<rect class="c" x="598" y="66" width="12" height="12" rx="2" style="--c:#ebedf0;--i:#cc77f0" />
<rect class="c" x="598" y="80" width="12" height="12" rx="2" style="--c:#ebedf0;--i:#c875ec" />
<rect class="c" x="598" y="94" width="12" height="12" rx="2" style="--c:#ebedf0;--i:#bb78da" />
<rect class="c" x="598" y="108" width="12" height="12" rx="2" style="--c:#ebedf0;--i:#8f66a3" />
<rect class="c" x="612" y="24" width="12" height="12" rx="2" style="--c:#ebedf0;--i:#8e469f" />
<rect class="c" x="612" y="38" width="12" height="12" rx="2" style="--c:#ebedf0;--i:#c265d7" />
<rect class="c" x="612" y="52" width="12" height="12" rx="2" style="--c:#ebedf0;--i:#d575ec" />
<rect class="c" x="612" y="66" width="12" height="12" rx="2" style="--c:#ebedf0;--i:#d976ef" />
<rect class="c" x="612" y="80" width="12" height="12" rx="2" style="--c:#ebedf0;--i:#d677ec" />
<rect class="c" x="612" y="94" width="12" height="12" rx="2" style="--c:#ebedf0;--i:#c87dda" />
<rect class="c" x="612" y="108" width="12" height="12" rx="2" style="--c:#ebedf0;--i:#986aa3" />
<rect class="c" x="626" y="24" width="12" height="12" rx="2" style="--c:#ebedf0;--i:#96449c" />
<rect class="c" x="626" y="38" width="12" height="12" rx="2" style="--c:#ebedf0;--i:#cc66d5" />
<rect class="c" x="626" y="52" width="12" height="12" rx="2" style="--c:#ebedf0;--i:#e075e9" />
<rect class="c" x="626" y="66" width="12" height="12" rx="2" style="--c:#ebedf0;--i:#e375ec" />
<rect class="c" x="626" y="80" width="12" height="12" rx="2" style="--c:#ebedf0;--i:#e178ea" />
<rect class="c" x="626" y="94" width="12" height="12" rx="2" style="--c:#ebedf0;--i:#d17dd8" />
<rect class="c" x="626" y="108" width="12" height="12" rx="2" style="--c:#ebedf0;--i:#9d67a1" />
<rect class="c" x="640" y="24" width="12" height="12" rx="2" style="--c:#ebedf0;--i:#9b4598" />
<rect class="c" x="640" y="38" width="12" height="12" rx="2" style="--c:#ebedf0;--i:#d367d0" />
<rect class="c" x="640" y="52" width="12" height="12" rx="2" style="--c:#ebedf0;--i:#e875e3" />
<rect class="c" x="640" y="66" width="12" height="12" rx="2" style="--c:#ebedf0;--i:#eb74e6" />
<rect class="c" x="640" y="80" width="12" height="12" rx="2" style="--c:#ebedf0;--i:#e877e3" />
<rect class="c" x="640" y="94" width="12" height="12" rx="2" style="--c:#ebedf0;--i:#d678d1" />
<rect class="c" x="640" y="108" width="12" height="12" rx="2" style="--c:#9be9a8;--i:#9f5e9b" />
<rect class="c" x="654" y="24" width="12" height="12" rx="2" style="--c:#ebedf0;--i:#9e4892" />
<rect class="c" x="654" y="38" width="12" height="12" rx="2" style="--c:#ebedf0;--i:#d76ac7" />
<rect class="c" x="654" y="52" width="12" height="12" rx="2" style="--c:#216e39;--i:#eb74d9" />
<rect class="c" x="654" y="66" width="12" height="12" rx="2" style="--c:#30a14e;--i:#ee73db" />
<rect class="c" x="654" y="80" width="12" height="12" rx="2" style="--c:#ebedf0;--i:#eb76d9" />
<rect class="c" x="654" y="94" width="12" height="12" rx="2" style="--c:#ebedf0;--i:#d870c7" />
<rect class="c" x="654" y="108" width="12" height="12" rx="2" style="--c:#40c463;--i:#a05191" />
<rect class="c" x="668" y="24" width="12" height="12" rx="2" style="--c:#ebedf0;--i:#9f4c8a" />
<rect class="c" x="668" y="38" width="12" height="12" rx="2" style="--c:#ebedf0;--i:#d86cbc" />
<rect class="c" x="668" y="52" width="12" height="12" rx="2" style="--c:#ebedf0;--i:#ec74cc" />
<rect class="c" x="668" y="66" width="12" height="12" rx="2" style="--c:#9be9a8;--i:#ef73ce" />
<rect class="c" x="668" y="80" width="12" height="12" rx="2" style="--c:#9be9a8;--i:#ec74cc" />
<rect class="c" x="668" y="94" width="12" height="12" rx="2" style="--c:#ebedf0;--i:#d867b8" />
<rect class="c" x="668" y="108" width="12" height="12" rx="2" style="--c:#ebedf0;--i:#9f4384" />
<rect class="c" x="682" y="24" width="12" height="12" rx="2" style="--c:#216e39;--i:#a05183" />
<rect class="c" x="682" y="38" width="12" height="12" rx="2" style="--c:#ebedf0;--i:#d96eb1" />
<rect class="c" x="682" y="52" width="12" height="12" rx="2" style="--c:#ebedf0;--i:#ec73be" />
<rect class="c" x="682" y="66" width="12" height="12" rx="2" style="--c:#40c463;--i:#f073c1" />
<rect class="c" x="682" y="80" width="12" height="12" rx="2" style="--c:#ebedf0;--i:#ec72be" />
<rect class="c" x="682" y="94" width="12" height="12" rx="2" style="--c:#ebedf0;--i:#d75ea8" />
<rect class="c" x="682" y="108" width="12" height="12" rx="2" style="--c:#ebedf0;--i:#9d3876" />
<rect class="c" x="696" y="24" width="12" height="12" rx="2" style="--c:#ebedf0;--i:#a1557c" />
<rect class="c" x="696" y="38" width="12" height="12" rx="2" style="--c:#ebedf0;--i:#d96ea5" />
<rect class="c" x="696" y="52" width="12" height="12" rx="2" style="--c:#30a14e;--i:#ec72b0" />
<rect class="c" x="696" y="66" width="12" height="12" rx="2" style="--c:#216e39;--i:#f074b3" />
<rect class="c" x="696" y="80" width="12" height="12" rx="2" style="--c:#216e39;--i:#ec71af" />
<rect class="c" x="696" y="94" width="12" height="12" rx="2" style="--c:#ebedf0;--i:#d65898" />
<rect class="c" x="696" y="108" width="12" height="12" rx="2" style="--c:#ebedf0;--i:#9d3369" />
<rect class="c" x="710" y="24" width="12" height="12" rx="2" style="--c:#ebedf0;--i:#a15775" />
<rect class="c" x="710" y="38" width="12" height="12" rx="2" style="--c:#9be9a8;--i:#d96e98" />
<rect class="c" x="710" y="52" width="12" height="12" rx="2" style="--c:#216e39;--i:#ec72a2" />
<rect class="c" x="710" y="66" width="12" height="12" rx="2" style="--c:#ebedf0;--i:#f075a6" />
<rect class="c" x="710" y="80" width="12" height="12" rx="2" style="--c:#ebedf0;--i:#ec70a1" />
<rect class="c" x="710" y="94" width="12" height="12" rx="2" style="--c:#ebedf0;--i:#d6568a" />
<rect class="c" x="710" y="108" width="12" height="12" rx="2" style="--c:#ebedf0;--i:#9d345e" />
<rect class="c" x="724" y="24" width="12" height="12" rx="2" style="--c:#ebedf0;--i:#9f576c" />
<rect class="c" x="724" y="38" width="12" height="12" rx="2" style="--c:#ebedf0;--i:#d56b8a" />
<rect class="c" x="724" y="52" width="12" height="12" rx="2" style="--c:#9be9a8;--i:#e97094" />
<rect class="c" x="724" y="66" width="12" height="12" rx="2" style="--c:#ebedf0;--i:#ed7498" />
<rect class="c" x="724" y="80" width="12" height="12" rx="2" style="--c:#ebedf0;--i:#e86e92" />
<rect class="c" x="724" y="94" width="12" height="12" rx="2" style="--c:#40c463;--i:#d3587d" />
<rect class="c" x="724" y="108" width="12" height="12" rx="2" style="--c:#ebedf0;--i:#9b3958" />
<rect class="c" x="738" y="24" width="12" height="12" rx="2" style="--c:#ebedf0;--i:#914f5d" />
<rect class="c" x="738" y="38" width="12" height="12" rx="2" style="--c:#ebedf0;--i:#c36176" />
<rect class="c" x="738" y="52" width="12" height="12" rx="2" style="--c:#ebedf0;--i:#d5677e" />
<rect class="c" x="738" y="66" width="12" height="12" rx="2" style="--c:#ebedf0;--i:#d96b83" />
<rect class="c" x="738" y="80" width="12" height="12" rx="2" style="--c:#ebedf0;--i:#d5657d" />
<rect class="c" x="738" y="94" width="12" height="12" rx="2" style="--c:#30a14e;--i:#c2546c" />
<rect class="c" x="738" y="108" width="12" height="12" rx="2" style="--c:#ebedf0;--i:#8f3c4f" />
<rect class="c" x="752" y="24" width="12" height="12" rx="2" style="--c:#40c463;--i:#6b3a42" />
<rect class="c" x="752" y="38" width="12" height="12" rx="2" style="--c:#40c463;--i:#904753" />
<text x="24" y="168" class="lg">Contributions</text>
<rect x="104" y="156" width="12" height="12" rx="2" fill="#ebedf0" />
<rect x="118" y="156" width="12" height="12" rx="2" fill="#9be9a8" />
<rect x="132" y="156" width="12" height="12" rx="2" fill="#40c463" />
<rect x="146" y="156" width="12" height="12" rx="2" fill="#30a14e" />
<rect x="160" y="156" width="12" height="12" rx="2" fill="#216e39" />
<text x="704" y="168" class="lg">Image</text>
<script type='text/javascript'><![CDATA[
  var s=document.querySelector('svg');
  setInterval(function(){s.classList.toggle('i')},5000);
]]></script>
</svg>